<svg width="30" height="30" viewBox="0 0 30 30" fill="none" xmlns="http://www.w3.org/2000/svg">
<g clip-path="url(#clip0_43_4)">
<path d="M4.6875 0.5H25.3125C27.6252 0.5 29.5 2.37481 29.5 4.6875V25.3125C29.5 27.6252 27.6252 29.5 25.3125 29.5H4.6875C2.37481 29.5 0.5 27.6252 0.5 25.3125V4.6875C0.5 2.37481 2.37481 0.5 4.6875 0.5Z" stroke="white"/>
<path d="M7.59367 14.7265C11.6202 12.9723 14.3052 11.8157 15.6487 11.2569C19.4844 9.66149 20.2814 9.38437 20.801 9.37509C20.9152 9.37317 21.1706 9.40153 21.3362 9.53578C21.4759 9.64912 21.5143 9.80231 21.5328 9.90984C21.5512 10.0173 21.574 10.2622 21.5558 10.4536C21.348 12.6376 20.4486 17.9377 19.991 20.3838C19.7974 21.4189 19.4161 21.7659 19.047 21.7999C18.245 21.8737 17.6359 21.2698 16.859 20.7606C15.6433 19.9637 14.9566 19.4676 13.7766 18.69C12.4129 17.7913 13.2969 17.2974 14.0741 16.4902C14.2775 16.279 17.8116 13.0645 17.8799 12.7729C17.8885 12.7364 17.8964 12.6005 17.8157 12.5287C17.7349 12.4569 17.6157 12.4815 17.5297 12.501C17.4078 12.5287 15.4657 13.8123 11.7037 16.3518C11.1524 16.7303 10.6531 16.9147 10.2058 16.9051C9.71259 16.8944 8.76395 16.6262 8.05873 16.397C7.19374 16.1158 6.50627 15.9671 6.56613 15.4897C6.59732 15.2409 6.93982 14.9865 7.59367 14.7265Z" fill="white"/>
</g>
<defs>
<clipPath id="clip0_43_4">
<rect width="30" height="30" fill="white"/>
</clipPath>
</defs>
</svg>
