<svg width="30" height="30" viewBox="0 0 30 30" fill="none" xmlns="http://www.w3.org/2000/svg">
<g clip-path="url(#clip0_43_7)">
<path d="M0.5 4.6875C0.5 2.37481 2.37481 0.5 4.6875 0.5H25.3125C27.6252 0.5 29.5 2.37481 29.5 4.6875V25.3125C29.5 27.6252 27.6252 29.5 25.3125 29.5H4.6875C2.37481 29.5 0.5 27.6252 0.5 25.3125V4.6875Z" stroke="white"/>
<path d="M8 14.7C8 12.9885 8.00105 11.7555 8.12683 10.8157C8.25048 9.8919 8.48653 9.32566 8.90315 8.90397C9.3276 8.48657 9.8957 8.25047 10.8195 8.12683C11.7592 8.00105 12.991 8 14.7 8H15.3C17.0115 8 18.2445 8.00105 19.1843 8.12683C20.1081 8.25048 20.6744 8.48653 21.096 8.90316C21.5134 9.32761 21.7495 9.89571 21.8732 10.8195C21.9989 11.7592 22 12.991 22 14.7V15.3C22 17.0115 21.9989 18.2445 21.8732 19.1843C21.7495 20.1081 21.5135 20.6743 21.0969 21.096C20.6724 21.5134 20.1043 21.7495 19.1805 21.8732C18.2408 21.9989 17.009 22 15.3 22H14.7C12.9885 22 11.7555 21.9989 10.8157 21.8732C9.89191 21.7495 9.32568 21.5135 8.904 21.0969C8.48658 20.6724 8.25047 20.1043 8.12683 19.1805C8.00105 18.2408 8 17.009 8 15.3V14.7Z" stroke="white"/>
<path d="M15.4802 18.305C12.0602 18.305 10.1102 15.965 10.0303 12.065H11.7502C11.8052 14.9251 13.0652 16.135 14.0653 16.385V12.065H15.6802V14.53C16.6652 14.425 17.7052 13.3 18.0553 12.0601H19.6652C19.534 12.702 19.2718 13.3098 18.8949 13.8458C18.5181 14.3818 18.0348 14.8343 17.4752 15.175C18.0997 15.4859 18.6511 15.9256 19.0934 16.465C19.5355 17.0045 19.8582 17.6317 20.0402 18.305H18.2653C17.8852 17.12 16.9352 16.2001 15.6802 16.075V18.305H15.4852H15.4802Z" fill="white"/>
</g>
<defs>
<clipPath id="clip0_43_7">
<rect width="30" height="30" fill="white"/>
</clipPath>
</defs>
</svg>
